# xmcd CD database file
#
# Track frame offsets:
#	182
#	34170
#	61450
#	91802
#	120240
#	157637
#	185262
#	245842
#	288070
#
# Disc length: 4170 seconds
#
# Revision: 0
# Processed by: cddbd v1.5PL3 Copyright (c) Steve Scherf et al.
# Submitted via: CDex 1.40Release
#
DISCID=68104809
DTITLE=Freddie King. 'LIVE' - Charly Blues Legends 'LIVE' Vol. 10
DYEAR=1900
DGENRE=Blues
TTITLE0=Big Legged Woman
TTITLE1=Woman Across The River
TTITLE2=Look On Yonder Wall
TTITLE3=Ain't No Sunshine
TTITLE4=Red Light, Green Light
TTITLE5=We're Gonna Boogie
TTITLE6=Have You Ever Loved A Woman
TTITLE7=Let The Good Times Roll
TTITLE8=Going Down (Encore)
EXTD=ID3G: 0
EXTT0=
EXTT1=
EXTT2=
EXTT3=
EXTT4=
EXTT5=
EXTT6=
EXTT7=
EXTT8=
PLAYORDER=
